<?xml version="1.0" encoding="iso-8859-1"?>
<!-- Generator: Adobe Illustrator 21.0.0, SVG Export Plug-In . SVG Version: 6.00 Build 0)  -->
<svg version="1.1" id="Capa_1" xmlns="http://www.w3.org/2000/svg" xmlns:xlink="http://www.w3.org/1999/xlink" x="0px" y="0px"
	 viewBox="0 0 512 512" style="enable-background:new 0 0 512 512;" xml:space="preserve">
<path style="fill:#F8D46E;" d="M138.5,128.454H24c-9.11,0-16.5,7.39-16.5,16.5c0,4.56,1.85,8.68,4.83,11.67
	c2.99,2.98,7.11,4.83,11.67,4.83h98c9.11,0,16.5,7.39,16.5,16.5c0,4.56-1.85,8.68-4.83,11.67c-2.99,2.98-7.11,4.83-11.67,4.83h-18
	c-9.11,0-16.5,7.39-16.5,16.5c0,4.56,1.85,8.68,4.83,11.67c2.99,2.98,7.11,4.83,11.67,4.83h18c9.11,0,16.5,7.39,16.5,16.5
	c0,4.56-1.85,8.68-4.83,11.67c-2.99,2.98-7.11,4.83-11.67,4.83H51c-9.11,0-16.5,7.39-16.5,16.5c0,4.56,1.85,8.68,4.83,11.67
	c2.99,2.98,7.11,4.83,11.67,4.83h71c9.11,0,16.5,7.39,16.5,16.5c0,4.56-1.85,8.68-4.83,11.67c-2.99,2.98-7.11,4.83-11.67,4.83H66.43
	c-9.25,0-17.1,7.57-16.93,16.82c0.17,8.96,7.49,16.18,16.5,16.18h72.5h71.95c-0.172-0.182-0.34-0.367-0.511-0.549
	c0.331,0.062,0.511,0.095,0.511,0.095l75.39-0.5V128L138.5,128.454z"/>
<path style="fill:#F9BD38;" d="M141.874,241.5c0,44.464,15.113,85.396,40.474,117.954h28.102c-0.172-0.182-0.34-0.367-0.511-0.549
	c0.331,0.062,0.511,0.095,0.511,0.095l75.39-0.5V128l-107.094,0.33C155.566,160.074,141.874,199.186,141.874,241.5z"/>
<circle style="fill:#EDE6F5;" cx="334" cy="241.5" r="170.5"/>
<path style="fill:#E0D3F2;" d="M391.5,385.75c-94.16,0-170.5-76.34-170.5-170.5c0-57.557,28.528-108.452,72.211-139.326
	C218.748,94.208,163.5,161.4,163.5,241.5c0,94.16,76.34,170.5,170.5,170.5c36.603,0,70.51-11.54,98.289-31.174
	C419.218,384.036,405.56,385.75,391.5,385.75z"/>
<path style="fill:#AB9DD6;" d="M503.93,227.5h-0.01H389.78H278.557h-114.14h-0.01c-0.38,4.62-0.57,9.29-0.57,14
	c0,5.05,0.22,10.06,0.66,15h114.32H389.52h114.32c0.44-4.94,0.66-9.95,0.66-15C504.5,236.79,504.31,232.12,503.93,227.5z"/>
<path style="fill:#A095CE;" d="M222.034,227.5h-57.617h-0.01c-0.38,4.62-0.57,9.29-0.57,14c0,5.05,0.22,10.06,0.66,15h61.54
	C223.704,247.116,222.739,237.426,222.034,227.5z"/>
<path style="fill:#FE4583;" d="M334,71c-50.57,0-96.01,22.02-127.23,57c-24.01,26.89-39.61,61.43-42.7,99.5h0.01h114.14h111.56
	h114.14h0.01C496.81,139.89,423.45,71,334,71z"/>
<path style="fill:#FC3268;" d="M293.211,75.924c-0.639,0.154-1.274,0.32-1.911,0.481c-33.157,8.552-62.414,26.815-84.53,51.595
	c-24.01,26.89-39.61,61.43-42.7,99.5h0.01h57.954c-0.293-4.047-0.451-8.13-0.451-12.25
	C221.583,157.693,248.671,106.798,293.211,75.924z"/>
<circle style="fill:#4F4F74;" cx="334" cy="241.5" r="57.5"/>
<path style="fill:#3E436D;" d="M374.789,275.161c-31.76,0-57.5-25.74-57.5-57.5c0-12.435,3.959-23.937,10.667-33.343
	c-28.918,3.02-51.456,27.464-51.456,57.182c0,31.76,25.74,57.5,57.5,57.5c19.325,0,36.408-9.54,46.833-24.157
	C378.846,275.051,376.831,275.161,374.789,275.161z"/>
<circle style="fill:#32314B;" cx="334" cy="241.5" r="31.5"/>
<path style="fill:#27273D;" d="M352.34,260.894c-17.4,0-31.5-14.1-31.5-31.5c0-6.952,2.255-13.373,6.068-18.582
	C312.926,214.029,302.5,226.54,302.5,241.5c0,17.4,14.1,31.5,31.5,31.5c10.448,0,19.702-5.088,25.432-12.918
	C357.152,260.607,354.78,260.894,352.34,260.894z"/>
<g>
	<path style="fill:#F8D46E;" d="M345,458c6.35,0,11.5,5.15,11.5,11.5c0,3.18-1.29,6.05-3.37,8.13c-2.08,2.08-4.95,3.37-8.13,3.37
		h-85c-6.35,0-11.5-5.15-11.5-11.5c0-3.18,1.29-6.05,3.37-8.13c2.08-2.08,4.95-3.37,8.13-3.37H345z"/>
	<path style="fill:#F8D46E;" d="M133,434c6.35,0,11.5,5.15,11.5,11.5c0,3.18-1.29,6.05-3.37,8.13c-2.08,2.08-4.95,3.37-8.13,3.37H48
		c-6.35,0-11.5-5.15-11.5-11.5c0-3.18,1.29-6.05,3.37-8.13c2.08-2.08,4.95-3.37,8.13-3.37H133z"/>
	<path style="fill:#F8D46E;" d="M39,194c9.11,0,16.5,7.39,16.5,16.5c0,4.56-1.85,8.68-4.83,11.67C47.68,225.15,43.56,227,39,227H24
		c-9.11,0-16.5-7.39-16.5-16.5c0-4.56,1.85-8.68,4.83-11.67C15.32,195.85,19.44,194,24,194H39z"/>
	<path style="fill:#F8D46E;" d="M226,31c7.46,0,13.5,6.04,13.5,13.5c0,3.73-1.51,7.1-3.95,9.55C233.1,56.49,229.73,58,226,58h-45
		c-7.46,0-13.5-6.04-13.5-13.5c0-3.73,1.51-7.1,3.95-9.55C173.9,32.51,177.27,31,181,31H226z"/>
</g>
<path d="M334,63.5c-51.466,0-97.891,21.964-130.42,57H24c-13.234,0-24,10.767-24,24s10.766,24,24,24h98c4.962,0,9,4.037,9,9
	s-4.038,9-9,9h-18c-13.234,0-24,10.767-24,24s10.766,24,24,24h18c4.962,0,9,4.037,9,9s-4.038,9-9,9H51c-13.234,0-24,10.767-24,24
	s10.766,24,24,24h71c4.962,0,9,4.037,9,9s-4.038,9-9,9H66.433c-6.546,0-12.948,2.697-17.563,7.399
	c-4.547,4.633-6.985,10.689-6.865,17.057C42.248,355.938,53.013,366.5,66,366.5h141.319c11.526,11.679,24.638,21.781,38.944,29.903
	C272.88,411.514,303.219,419.5,334,419.5c98.149,0,178-79.851,178-178S432.149,63.5,334,63.5z M334,78.5
	c82.591,0,151.024,61.747,161.58,141.5h-25.83c-4.143,0-7.5,3.357-7.5,7.5s3.357,7.5,7.5,7.5h27.109
	c0.085,2.157,0.141,4.322,0.141,6.5c0,2.514-0.066,5.013-0.179,7.5h-98.267c0.284-2.463,0.446-4.962,0.446-7.5
	c0-2.194-0.113-4.362-0.326-6.5h41.076c4.143,0,7.5-3.357,7.5-7.5s-3.357-7.5-7.5-7.5h-44.421
	c-8.897-25.304-33.022-43.5-61.329-43.5s-52.432,18.196-61.329,43.5H172.42C182.976,140.247,251.409,78.5,334,78.5z M384,241.5
	c0,27.57-22.43,50-50,50s-50-22.43-50-50s22.43-50,50-50S384,213.93,384,241.5z M171,241.5c0-2.178,0.056-4.343,0.141-6.5h98.185
	c-0.213,2.138-0.326,4.306-0.326,6.5c0,2.538,0.162,5.037,0.446,7.5h-98.274C171.06,246.508,171,244.008,171,241.5z M334,404.5
	c-56.673,0-108.427-28.763-138.442-76.939c-2.19-3.516-6.815-4.591-10.332-2.399c-3.516,2.189-4.59,6.815-2.4,10.331
	c3.457,5.549,7.234,10.884,11.27,16.008H66c-4.87,0-8.907-3.959-8.999-8.825c-0.043-2.308,0.871-4.534,2.574-6.269
	c1.813-1.847,4.312-2.906,6.857-2.906H122c13.233,0,24-10.767,24-24s-10.767-24-24-24H51c-4.962,0-9-4.037-9-9s4.038-9,9-9h71
	c13.233,0,24-10.767,24-24s-10.767-24-24-24h-18c-4.962,0-9-4.037-9-9s4.038-9,9-9h18c13.233,0,24-10.767,24-24s-10.767-24-24-24H24
	c-4.962,0-9-4.037-9-9s4.038-9,9-9h167.093C169.056,165.132,156,201.819,156,241.5c0,22.806,4.262,45.027,12.668,66.049
	c1.538,3.847,5.901,5.718,9.749,4.18c3.846-1.538,5.717-5.902,4.179-9.748c-4.902-12.26-8.257-24.969-10.052-37.98H273.02
	c9.174,24.785,33.046,42.5,60.981,42.5s51.806-17.715,60.981-42.5H495.44C484.446,343.268,416.245,404.5,334,404.5z"/>
<path d="M334,202.5c-21.505,0-39,17.495-39,39s17.495,39,39,39s39-17.495,39-39S355.505,202.5,334,202.5z M334,265.5
	c-13.233,0-24-10.767-24-24s10.767-24,24-24s24,10.767,24,24S347.233,265.5,334,265.5z"/>
<path d="M63,210.5c0-13.233-10.766-24-24-24H24c-13.234,0-24,10.767-24,24s10.766,24,24,24h15C52.234,234.5,63,223.733,63,210.5z
	 M15,210.5c0-4.963,4.038-9,9-9h15c4.962,0,9,4.037,9,9s-4.038,9-9,9H24C19.038,219.5,15,215.463,15,210.5z"/>
<path d="M181,65.5h45c11.58,0,21-9.421,21-21s-9.42-21-21-21h-45c-11.58,0-21,9.421-21,21S169.42,65.5,181,65.5z M181,38.5h45
	c3.309,0,6,2.691,6,6s-2.691,6-6,6h-45c-3.309,0-6-2.691-6-6S177.691,38.5,181,38.5z"/>
<path d="M133,426.5H48c-10.477,0-19,8.523-19,19s8.523,19,19,19h85c10.477,0,19-8.523,19-19S143.477,426.5,133,426.5z M133,449.5H48
	c-2.206,0-4-1.794-4-4s1.794-4,4-4h85c2.206,0,4,1.794,4,4S135.206,449.5,133,449.5z"/>
<path d="M345,450.5h-85c-10.477,0-19,8.523-19,19s8.523,19,19,19h85c10.477,0,19-8.523,19-19S355.477,450.5,345,450.5z M345,473.5
	h-85c-2.206,0-4-1.794-4-4s1.794-4,4-4h85c2.206,0,4,1.794,4,4S347.206,473.5,345,473.5z"/>
<g>
</g>
<g>
</g>
<g>
</g>
<g>
</g>
<g>
</g>
<g>
</g>
<g>
</g>
<g>
</g>
<g>
</g>
<g>
</g>
<g>
</g>
<g>
</g>
<g>
</g>
<g>
</g>
<g>
</g>
</svg>
